<svg viewBox="0 0 1024 1024" version="1.1" xmlns="http://www.w3.org/2000/svg" class="_3fslu0JT"><path d="M819.743 958H204.3c-59.269-0.071-107.298-46.902-107.371-104.692V646.144c0-17.693 14.71-32.036 32.855-32.036s32.855 14.343 32.855 32.036v207.164c0 22.382 18.706 40.621 41.66 40.621h615.443c22.988-0.047 41.612-18.206 41.661-40.621V646.144c0-17.693 14.71-32.036 32.855-32.036 18.145 0 32.855 14.343 32.855 32.036v207.164c-0.023 57.81-48.081 104.668-107.37 104.692zM74.457 363.29l-0.613 2.179c-4.205 12.259-6.133 23.279-6.133 34.556-0.096 37.108 20.742 71.263 54.233 88.888 13.712 6.706 29.351 9.739 48.012 9.739 34.601-0.205 66.726-17.532 85.292-46.003a99.751 99.751 0 0 1 17.041-25.415c14.763-17.342 40.784-28.277 68.821-28.277 28.65 0 55.679 11.618 72.325 31.139 7.228 7.817 12.003 17.214 14.588 22.254 18.28 28.439 50.258 45.731 84.679 45.79 34.169-0.256 66.017-18.154 84.722-47.925a85.115 85.115 0 0 1 14.938-22.211c15.289-18.495 41.879-30.199 70.266-30.199 27.729 0 52.568 10.593 70.003 29.814 10.382 11.234 15.814 23.151 17.61 27.081 16.515 25.714 48.758 43.312 84.285 43.312 19.713-0.128 36.185-3.588 48.669-10.294 43.939-23.764 63.993-74.892 47.531-121.18l-1.358-5.211-94.097-230.101c0.832 0.214-0.395-0.726-7.71-1.153H176.965c-0.789 0.003-1.578 0.031-2.366 0.085L74.457 363.29z m95.499 199.39c-29 0-54.54-5.297-75.961-15.762C36.082 516.72 2.044 461.021 2 400.067c0-18.111 3.154-36.35 9.287-54.247a28.769 28.769 0 0 1 1.708-5.296L114.54 104.357C126.368 71.211 158.741 66 176.965 66h672.523c14.719 0.854 53.313 3.161 67.244 42.97l94.185 230.23a28.155 28.155 0 0 1 1.577 5.04c6.396 19.007 9.506 36.948 9.506 54.93 0.122 60.092-33.296 115.491-87.219 144.587-22.211 11.917-49.152 18.068-80.167 18.282-58.16 0.281-112.226-29.149-142.504-77.569-2.847-5.51-4.994-10.251-8.63-14.181-10.776-11.917-35.045-8.158-41.047-1.025a41.291 41.291 0 0 0-7.228 10.978c-32.417 52.154-85.029 81.499-142.548 81.926-58.049-0.198-111.799-29.867-141.847-78.295-3.11-5.895-5.082-9.696-7.141-11.875-10.557-12.387-37.805-7.518-41.748-2.905a40.619 40.619 0 0 0-7.228 10.721 32.43 32.43 0 0 1-2.497 4.699c-30.245 48.403-84.111 78.005-142.24 78.167z" fill="#e02e24"></path></svg>